<?xml version="1.0" standalone="no"?>
<!DOCTYPE svg PUBLIC "-//W3C//DTD SVG 20010904//EN"
 "http://www.w3.org/TR/2001/REC-SVG-20010904/DTD/svg10.dtd">
<svg version="1.0" xmlns="http://www.w3.org/2000/svg"
 width="496.000000pt" height="496.000000pt" viewBox="0 0 496.000000 496.000000"
 preserveAspectRatio="xMidYMid meet">
<metadata>
Created by potrace 1.11, written by Peter Selinger 2001-2013
</metadata>
<g transform="translate(0.000000,496.000000) scale(0.100000,-0.100000)"
fill="#000000" stroke="none">
<path d="M3150 4943 c-34 -24 -39 -29 -96 -108 -82 -115 -134 -202 -210 -355
-62 -124 -147 -320 -159 -370 -2 -8 -13 -46 -24 -85 -35 -123 -52 -243 -53
-358 0 -62 3 -125 5 -142 3 -16 9 -50 12 -75 22 -170 122 -447 243 -680 144
-277 487 -797 678 -1029 71 -85 164 -268 164 -320 0 -20 -61 -74 -149 -132
-74 -49 -216 -102 -306 -113 -44 -6 -127 -15 -190 -21 -53 -6 -441 -4 -530 1
-38 3 -232 7 -430 9 -450 5 -516 -5 -765 -112 -263 -113 -409 -243 -410 -363
0 -183 415 -421 995 -570 83 -21 167 -41 187 -44 21 -3 57 -10 80 -15 88 -19
167 -30 367 -51 85 -8 477 -5 531 4 195 36 275 58 374 104 276 130 407 349
410 687 1 118 -7 234 -19 289 -3 12 -7 33 -10 49 -5 25 -9 45 -19 92 -3 11
-14 54 -25 95 -16 60 -18 78 -8 91 7 9 30 41 53 70 52 69 97 149 133 235 15
38 28 72 29 77 0 4 6 33 13 65 17 78 15 280 -4 377 -67 342 -258 651 -502 813
-38 25 -136 76 -218 112 -194 88 -250 125 -318 210 -78 98 -119 222 -124 376
-7 230 57 455 236 835 95 203 139 305 139 325 0 16 -28 44 -43 44 -7 0 -24 -8
-37 -17z"/>
<path d="M2593 2042 c-12 -8 -14 -15 -37 -152 -23 -132 -34 -251 -37 -393 -1
-66 2 -80 17 -92 25 -19 48 -18 130 4 134 36 202 82 235 157 48 107 -20 343
-123 429 -55 47 -148 70 -185 47z m88 -52 c58 -16 113 -79 148 -169 57 -148
47 -245 -32 -302 -36 -26 -115 -55 -201 -74 l-29 -6 7 123 c3 68 8 134 10 148
3 14 7 50 11 81 3 31 8 67 10 80 17 90 27 129 33 129 4 0 23 -5 43 -10z"/>
<path d="M1706 1935 c-3 -9 -4 -21 -1 -25 5 -9 84 -27 140 -32 17 -2 33 -6 36
-10 3 -5 4 -50 3 -100 -4 -150 -6 -362 -5 -375 0 -7 10 -13 21 -13 11 0 23 6
25 13 2 6 6 115 9 240 2 125 5 230 8 232 2 2 39 5 83 6 95 2 128 12 123 36 -3
16 -19 18 -158 19 -85 1 -166 5 -180 8 -73 18 -97 18 -104 1z"/>
<path d="M3155 1840 c-148 -32 -218 -194 -140 -325 52 -90 163 -128 276 -94
83 25 119 88 119 205 0 157 -105 245 -255 214z m152 -79 c55 -55 71 -155 37
-227 -41 -87 -194 -97 -264 -18 -61 71 -61 163 2 226 37 37 71 48 136 47 52
-2 67 -6 89 -28z"/>
<path d="M3161 1621 c-15 -27 9 -46 34 -27 16 12 17 16 6 30 -18 21 -28 20
-40 -3z"/>
<path d="M2118 1805 c-68 -46 -116 -152 -101 -225 19 -98 198 -160 296 -103
90 53 105 167 36 275 -39 60 -53 68 -132 73 -54 5 -67 2 -99 -20z m137 -45
c92 -42 115 -186 36 -233 -60 -35 -179 -10 -206 44 -27 51 -11 123 36 169 47
44 73 48 134 20z"/>
<path d="M2198 1638 c-8 -21 2 -38 22 -38 19 0 30 17 23 38 -3 6 -13 12 -23
12 -10 0 -20 -6 -22 -12z"/>
</g>
</svg>
